<svg width="167" height="192" viewBox="0 0 167 192" fill="none" xmlns="http://www.w3.org/2000/svg">
<g id="Icon" clip-path="url(#clip0_525_105)" filter="url(#filter0_dd_525_105)">
<g id="Group">
<path id="Vector" d="M83.5 131C82.7399 131 82.0315 130.631 81.6017 130.016C73.5945 118.563 66.6686 109.784 61.115 102.743L61.1141 102.742C48.293 86.4889 41.5 77.825 41.5 62.6562C41.5 39.6954 60.3345 21 83.5 21C106.665 21 125.5 39.6954 125.5 62.6562C125.5 77.8084 118.66 86.5393 105.749 102.918L105.748 102.919C100.219 109.934 93.3231 118.682 85.3983 130.016C84.9685 130.631 84.2601 131 83.5 131Z" fill="url(#paint0_linear_525_105)" stroke="url(#paint1_linear_525_105)" stroke-width="2"/>
<path id="Vector_2" d="M83.5 86C70.8178 86 60.5 75.6822 60.5 63C60.5 50.3178 70.8178 40 83.5 40C96.1822 40 106.5 50.3178 106.5 63C106.5 75.6822 96.1822 86 83.5 86Z" fill="white"/>
</g>
</g>
<defs>
<filter id="filter0_dd_525_105" x="0.5" y="0" width="166" height="192" filterUnits="userSpaceOnUse" color-interpolation-filters="sRGB">
<feFlood flood-opacity="0" result="BackgroundImageFix"/>
<feColorMatrix in="SourceAlpha" type="matrix" values="0 0 0 0 0 0 0 0 0 0 0 0 0 0 0 0 0 0 127 0" result="hardAlpha"/>
<feOffset dy="20"/>
<feGaussianBlur stdDeviation="20"/>
<feColorMatrix type="matrix" values="0 0 0 0 1 0 0 0 0 0.680498 0 0 0 0 0 0 0 0 0.29 0"/>
<feBlend mode="normal" in2="BackgroundImageFix" result="effect1_dropShadow_525_105"/>
<feColorMatrix in="SourceAlpha" type="matrix" values="0 0 0 0 0 0 0 0 0 0 0 0 0 0 0 0 0 0 127 0" result="hardAlpha"/>
<feOffset dy="5"/>
<feGaussianBlur stdDeviation="5"/>
<feColorMatrix type="matrix" values="0 0 0 0 1 0 0 0 0 0.680498 0 0 0 0 0 0 0 0 0.26 0"/>
<feBlend mode="normal" in2="effect1_dropShadow_525_105" result="effect2_dropShadow_525_105"/>
<feBlend mode="normal" in="SourceGraphic" in2="effect2_dropShadow_525_105" result="shape"/>
</filter>
<linearGradient id="paint0_linear_525_105" x1="83.5" y1="-22.8025" x2="83.5" y2="169.452" gradientUnits="userSpaceOnUse">
<stop offset="0.630208" stop-color="#FFAE00"/>
<stop offset="1" stop-color="#FFCD1E"/>
</linearGradient>
<linearGradient id="paint1_linear_525_105" x1="83.5" y1="20" x2="83.5" y2="132" gradientUnits="userSpaceOnUse">
<stop stop-color="#FF9F00"/>
<stop offset="1" stop-color="#FFB800"/>
</linearGradient>
<clipPath id="clip0_525_105">
<rect width="86" height="112" fill="white" transform="translate(40.5 20)"/>
</clipPath>
</defs>
</svg>
